<svg width="7" height="9" viewBox="0 0 7 9" fill="none" xmlns="http://www.w3.org/2000/svg">
<path d="M4.30909 5.75766H6.33126V7.77983M2.69135 2.52218H0.669174V0.5M6.50014 2.92799C6.27338 2.36673 5.89371 1.88035 5.4043 1.52412C4.91489 1.16789 4.33544 0.956009 3.73166 0.912729C3.12788 0.86945 2.52394 0.996405 1.98872 1.27919C1.45351 1.56197 1.00842 1.98935 0.70393 2.51252M0.500132 5.35204C0.726893 5.91329 1.10655 6.39967 1.59597 6.7559C2.08538 7.11213 2.66542 7.32374 3.2692 7.36702C3.87298 7.4103 4.47643 7.28337 5.01164 7.00058C5.54686 6.7178 5.99164 6.2905 6.29613 5.76733" stroke="#82CDFF" style="stroke:#82CDFF;stroke:color(display-p3 0.5098 0.8039 1.0000);stroke-opacity:1;" stroke-linecap="round" stroke-linejoin="round"/>
</svg>
