<svg width="19" height="21" viewBox="0 0 19 21" fill="none" xmlns="http://www.w3.org/2000/svg">
<path d="M9.35 13.2129C7.67475 13.2129 6.32374 11.8619 6.32374 10.1866C6.32374 8.51135 7.67475 7.13333 9.35 7.13333C11.0252 7.13333 12.4033 8.51135 12.4033 10.1866C12.4033 11.8619 11.0252 13.2129 9.35 13.2129ZM9.35 14.699C11.8359 14.699 13.8894 12.6725 13.8894 10.1866C13.8894 7.70075 11.8359 5.64722 9.35 5.64722C6.86414 5.64722 4.83763 7.70075 4.83763 10.1866C4.83763 12.6725 6.86414 14.699 9.35 14.699ZM9.35 1.48611C10.9712 1.48611 12.6735 3.05328 11.6737 5.86338L11.3495 6.78206L13.2949 3.94495C13.2949 1.75631 11.5386 0 9.35 0C7.16136 0 5.40505 1.75631 5.40505 3.94495L7.3505 6.78206L7.02626 5.86338C6.02651 3.05328 7.72879 1.48611 9.35 1.48611ZM1.81137 5.83636C2.62197 4.43131 4.83763 3.72878 6.75606 6.0255L7.40454 6.75504L5.91843 3.64772C4.02702 2.56692 1.62223 3.18838 0.541421 5.07979C-0.566406 6.99822 0.0820783 9.376 1.97349 10.4838L5.40505 10.2136L4.43233 10.0245C1.51415 9.5111 1.00076 7.24141 1.81137 5.83636ZM16.8886 5.83636C17.6992 7.24141 17.1858 9.5111 14.2677 10.0245L13.2949 10.2136L16.7265 10.4838C18.6179 9.376 19.2664 6.99822 18.1586 5.07979C17.0778 3.18838 14.673 2.56692 12.7816 3.64772L11.2954 6.75504L11.9439 6.0255C13.8624 3.72878 16.078 4.43131 16.8886 5.83636ZM9.35 18.8871C7.72879 18.8871 6.02651 17.3199 7.02626 14.5098L7.3505 13.5911L5.40505 16.4283C5.40505 18.6169 7.16136 20.3732 9.35 20.3732C11.5386 20.3732 13.2949 18.6169 13.2949 16.4283L11.3495 13.5911L11.6737 14.5098C12.6735 17.3199 10.9712 18.8871 9.35 18.8871ZM1.81137 14.5369C1.00076 13.1318 1.51415 10.8621 4.43233 10.3487L5.40505 10.1596L1.97349 9.88938C0.0820783 10.9972 -0.566406 13.375 0.541421 15.2934C1.62223 17.1848 4.02702 17.8063 5.91843 16.7255L7.40454 13.6182L6.75606 14.3477C4.83763 16.6444 2.62197 15.9419 1.81137 14.5369ZM16.8886 14.5369C16.078 15.9419 13.8624 16.6444 11.9439 14.3477L11.2954 13.6182L12.7816 16.7255C14.673 17.8063 17.0778 17.1848 18.1586 15.2934C19.2664 13.375 18.6179 10.9972 16.7265 9.88938L13.2949 10.1596L14.2677 10.3487C17.1858 10.8621 17.6992 13.1318 16.8886 14.5369Z" fill="#82CDFF" style="fill:#82CDFF;fill:color(display-p3 0.5098 0.8039 1.0000);fill-opacity:1;"/>
</svg>
